<?xml version="1.0" standalone="no"?>
<!DOCTYPE svg PUBLIC "-//W3C//DTD SVG 20010904//EN"
 "http://www.w3.org/TR/2001/REC-SVG-20010904/DTD/svg10.dtd">
<svg version="1.0" xmlns="http://www.w3.org/2000/svg"
 width="553.000000pt" height="548.000000pt" viewBox="0 0 553.000000 548.000000"
 preserveAspectRatio="xMidYMid meet">
<metadata>
Created by potrace 1.16, written by Peter Selinger 2001-2019
</metadata>
<g transform="translate(0.000000,548.000000) scale(0.100000,-0.100000)"
fill="#000000" stroke="none">
<path d="M2406 5364 c-63 -20 -145 -70 -278 -172 -153 -116 -195 -135 -393
-172 -186 -36 -248 -52 -305 -81 -106 -53 -155 -122 -189 -269 -38 -160 -62
-233 -91 -275 -16 -22 -85 -95 -154 -163 -156 -154 -176 -186 -176 -281 0 -76
12 -105 128 -302 69 -119 78 -168 62 -336 -21 -218 -4 -297 82 -366 53 -42 89
-61 258 -137 206 -92 236 -117 385 -314 153 -202 266 -242 572 -202 227 30
305 21 543 -59 303 -103 393 -89 640 101 178 137 219 155 498 209 210 41 293
81 355 173 28 41 77 186 77 227 0 35 41 157 68 200 14 22 84 99 157 170 164
161 180 186 179 280 -1 79 -17 121 -93 244 -97 156 -116 225 -100 362 13 115
11 265 -4 302 -36 85 -104 134 -322 231 -206 91 -238 115 -355 266 -55 70
-120 146 -145 169 -95 88 -207 113 -405 91 -294 -32 -371 -26 -580 45 -215 75
-316 89 -414 59z m754 -563 c590 -135 980 -543 980 -1026 0 -489 -410 -910
-1003 -1030 -220 -45 -555 -33 -747 27 -258 79 -433 180 -590 338 -225 225
-319 472 -290 760 45 429 409 788 935 920 138 35 183 39 410 35 172 -2 227 -7
305 -24z"/>
<path d="M2685 4681 c-289 -27 -560 -149 -742 -333 -113 -114 -171 -203 -220
-339 -24 -68 -27 -87 -27 -229 -1 -162 8 -211 61 -325 102 -223 342 -425 613
-518 163 -56 251 -70 450 -70 190 -1 248 7 405 54 344 101 612 347 702 644 34
113 35 300 2 413 -86 289 -329 521 -665 636 -175 59 -389 84 -579 67z m703
-631 c34 -28 62 -57 62 -65 0 -16 -55 -62 -444 -375 -176 -141 -278 -216 -295
-218 -23 -2 -70 31 -267 188 -131 106 -243 196 -247 200 -17 15 3 46 55 85 74
57 75 57 100 44 12 -7 92 -68 176 -135 102 -82 162 -124 178 -124 17 0 113 71
305 225 154 124 288 225 297 225 10 0 45 -23 80 -50z"/>
<path d="M3975 2366 c-90 -19 -169 -42 -195 -57 -40 -22 -46 -29 -57 -79 -12
-54 -47 -241 -64 -350 -11 -68 -35 -202 -54 -295 -7 -38 -16 -88 -20 -110 -8
-59 -35 -210 -51 -289 -9 -46 -11 -73 -4 -81 11 -13 83 -35 215 -66 50 -11
136 -31 193 -45 56 -13 150 -35 210 -49 59 -14 143 -35 186 -46 44 -11 107
-23 140 -26 54 -5 63 -3 80 16 18 20 19 27 9 79 -6 31 -18 82 -26 112 -9 30
-25 91 -37 135 -12 44 -30 114 -41 155 -11 41 -27 98 -34 125 -20 77 -54 202
-76 285 -11 41 -27 98 -34 125 -20 77 -54 202 -76 285 -11 41 -27 99 -34 128
-16 63 -30 82 -59 81 -11 -1 -89 -16 -171 -33z"/>
<path d="M1593 2368 c-10 -13 -27 -93 -63 -298 -11 -63 -27 -151 -35 -195 -8
-44 -24 -132 -35 -195 -40 -230 -61 -347 -75 -420 -8 -41 -23 -129 -35 -195
-11 -66 -30 -169 -41 -230 -10 -60 -26 -146 -34 -190 -7 -44 -21 -122 -30
-173 -16 -85 -16 -94 -1 -117 23 -35 62 -32 182 11 54 20 131 47 169 61 98 34
204 72 245 88 225 87 297 108 370 108 95 0 111 -8 385 -197 361 -249 429 -294
450 -296 78 -8 84 6 140 340 14 79 26 150 76 425 11 61 26 148 34 195 7 47 18
108 24 135 5 28 19 104 31 170 12 66 27 156 35 200 8 44 24 132 35 195 34 190
51 284 55 305 2 11 0 27 -5 35 -7 11 -22 8 -87 -22 -107 -50 -142 -58 -260
-58 -114 0 -191 16 -378 78 -188 63 -212 66 -329 53 -428 -50 -574 -22 -756
148 -30 28 -55 51 -56 51 -1 0 -6 -6 -11 -12z"/>
</g>
</svg>
