<?xml version="1.0" standalone="no"?>
<!DOCTYPE svg PUBLIC "-//W3C//DTD SVG 20010904//EN"
 "http://www.w3.org/TR/2001/REC-SVG-20010904/DTD/svg10.dtd">
<svg version="1.0" xmlns="http://www.w3.org/2000/svg"
 width="580.000000pt" height="598.000000pt" viewBox="0 0 580.000000 598.000000"
 preserveAspectRatio="xMidYMid meet">
<metadata>
Created by potrace 1.16, written by Peter Selinger 2001-2019
</metadata>
<g transform="translate(0.000000,598.000000) scale(0.100000,-0.100000)"
fill="#000000" stroke="none">
<path d="M2475 5465 c-152 -20 -340 -62 -443 -99 -20 -7 -66 -23 -102 -36
-105 -37 -296 -131 -415 -205 -550 -340 -952 -888 -1118 -1525 -60 -230 -82
-404 -82 -655 0 -203 10 -324 41 -485 102 -533 353 -1005 728 -1367 301 -292
620 -482 1011 -600 394 -119 888 -125 1275 -17 425 120 783 328 1091 634 307
306 547 721 659 1143 65 246 90 440 90 694 0 746 -312 1440 -871 1934 -318
281 -710 475 -1129 558 -208 41 -528 53 -735 26z m560 -569 c661 -106 1214
-546 1475 -1173 107 -257 155 -502 155 -788 -1 -529 -189 -1001 -549 -1382
-297 -314 -672 -509 -1106 -575 -125 -19 -402 -16 -530 5 -150 26 -226 47
-425 120 -46 16 -183 86 -255 130 -309 189 -577 486 -740 822 -137 281 -200
561 -200 885 0 688 322 1291 897 1678 75 51 272 150 368 185 108 40 289 84
400 97 55 7 107 14 115 15 33 8 310 -5 395 -19z"/>
<path d="M1905 3935 c-108 -20 -218 -71 -296 -137 -106 -89 -178 -216 -210
-370 -64 -314 52 -641 335 -940 44 -45 152 -157 240 -248 89 -91 287 -295 441
-455 154 -159 297 -306 317 -327 20 -21 42 -38 50 -38 7 0 116 107 243 238
126 130 353 365 505 522 327 337 386 402 453 495 63 89 128 224 163 340 24 78
27 108 28 230 1 168 -11 226 -72 355 -68 144 -187 253 -332 305 -66 23 -196
45 -270 45 -242 0 -423 -95 -615 -323 -44 -53 -87 -98 -95 -102 -10 -5 -33 14
-75 62 -156 178 -281 280 -394 321 -111 40 -286 51 -416 27z"/>
</g>
</svg>
